<?xml version="1.0" standalone="no"?>
<!DOCTYPE svg PUBLIC "-//W3C//DTD SVG 20010904//EN"
 "http://www.w3.org/TR/2001/REC-SVG-20010904/DTD/svg10.dtd">
<svg version="1.0" xmlns="http://www.w3.org/2000/svg"
 width="251.000000pt" height="106.000000pt" viewBox="0 0 251.000000 106.000000"
 preserveAspectRatio="xMidYMid meet">

<g transform="translate(0.000000,106.000000) scale(0.100000,-0.100000)"
fill="#000000" stroke="none">
<path d="M0 863 c0 -108 3 -193 7 -190 3 4 13 1 21 -5 11 -10 17 -8 28 7 12
16 16 17 23 6 5 -7 14 -10 20 -7 15 10 99 -4 114 -18 7 -6 19 -12 27 -14 41
-9 57 -62 20 -62 -11 0 -20 5 -20 11 0 8 -5 7 -16 -2 -13 -10 -17 -10 -24 0
-4 8 -10 9 -13 4 -10 -16 -102 -7 -145 14 l-41 20 -1 -313 0 -314 400 0 c316
0 399 3 394 13 -6 8 -3 8 8 -1 9 -7 31 -12 49 -10 l33 3 -37 38 c-20 22 -40
36 -46 33 -5 -4 -13 -1 -17 5 -5 8 -8 8 -14 -1 -5 -8 -9 -7 -13 5 -4 9 -3 14
1 11 4 -2 14 -1 21 4 10 6 8 9 -8 15 -12 3 -19 11 -16 16 3 5 -2 6 -11 2 -12
-4 -15 -2 -12 8 3 8 14 14 25 13 17 -1 19 4 17 29 -5 36 -13 48 -15 21 -1 -10
-1 -23 0 -27 1 -4 -8 -3 -20 4 -17 9 -19 13 -8 20 12 8 12 10 -1 18 -8 5 -18
7 -24 4 -5 -4 -6 -1 -1 7 6 10 4 12 -8 7 -22 -8 -47 2 -47 19 0 8 -4 14 -10
14 -5 0 -10 5 -10 10 0 6 7 10 15 10 16 0 16 0 19 47 2 35 -3 40 -22 21 -9 -9
-9 -5 0 14 10 20 16 24 25 16 7 -6 13 -16 13 -23 0 -11 41 -45 53 -45 2 0 3
15 3 34 -1 29 -3 32 -18 22 -13 -7 -14 -12 -5 -18 8 -5 7 -8 -5 -8 -16 0 -23
17 -19 43 0 4 -4 7 -10 7 -5 0 -7 5 -4 11 5 6 12 4 20 -8 13 -17 16 -15 57 22
23 22 44 41 46 42 2 1 -6 11 -17 22 -11 11 -23 16 -26 12 -2 -5 2 -11 10 -15
8 -3 15 -11 15 -17 0 -7 -8 -5 -19 5 -11 10 -24 15 -30 11 -7 -3 -8 0 -5 9 4
11 0 16 -11 16 -9 0 -13 5 -10 10 4 6 -7 23 -24 39 -27 25 -36 25 -32 -1 2
-15 -20 -8 -25 7 -4 8 -10 15 -15 15 -4 0 -5 -8 -2 -17 6 -15 5 -16 -9 -3 -21
20 -12 33 18 27 26 -5 30 3 13 20 -6 6 -19 9 -28 6 -14 -4 -14 -3 -1 6 8 6 11
11 6 11 -5 0 -2 8 5 17 12 14 12 16 0 8 -11 -6 -13 -4 -8 9 4 10 7 20 7 22 0
3 5 2 10 -1 6 -3 10 3 10 14 0 11 -4 23 -10 26 -18 11 -10 26 11 20 20 -7 20
-6 2 14 -10 12 -19 17 -21 11 -2 -5 -8 -10 -14 -10 -6 0 -4 10 4 23 21 31 29
99 11 93 -7 -3 -13 -1 -13 4 0 6 7 10 15 10 8 0 15 7 15 16 0 14 -3 14 -15 4
-9 -7 -19 -10 -23 -6 -4 4 2 14 13 22 19 15 19 16 2 29 -18 13 -18 14 0 24 17
10 16 10 -4 11 -19 0 -20 3 -10 25 14 28 29 34 21 8 -2 -10 1 -8 7 5 15 28 4
40 -21 24 -12 -7 -21 -8 -25 -2 -4 6 -116 10 -291 10 l-284 0 0 -197z m570
166 c0 -5 -7 -9 -15 -9 -15 0 -20 12 -9 23 8 8 24 -1 24 -14z m10 -93 c-7 -7
-13 -7 -20 0 -6 6 -3 10 10 10 13 0 16 -4 10 -10z m25 -86 c3 -5 2 -10 -4 -10
-5 0 -13 5 -16 10 -3 6 -2 10 4 10 5 0 13 -4 16 -10z m-14 -173 c-10 -9 -11
-8 -5 6 3 10 9 15 12 12 3 -3 0 -11 -7 -18z m-26 -27 c-1 -11 -4 -22 -7 -25
-4 -5 -4 34 1 43 4 8 7 -1 6 -18z m-206 -19 c18 -12 4 -51 -19 -51 -22 0 -30
19 -18 43 10 19 17 21 37 8z m291 -95 c0 -11 -19 -15 -25 -6 -3 5 1 10 9 10 9
0 16 -2 16 -4z m-12 -127 c-3 -8 -7 -3 -11 10 -4 17 -3 21 5 13 5 -5 8 -16 6
-23z m-488 -23 c0 -11 -19 -15 -25 -6 -3 5 1 10 9 10 9 0 16 -2 16 -4z m503
-53 c-7 -2 -9 -11 -6 -19 7 -19 -1 -18 -21 5 -16 18 -16 18 11 18 15 0 23 -2
16 -4z m1 -112 c4 -5 -3 -7 -14 -4 -23 6 -26 13 -6 13 8 0 17 -4 20 -9z m46
-32 c0 -5 7 -9 15 -9 31 0 11 -30 -30 -44 -16 -5 -16 -3 5 15 14 11 20 18 14
15 -6 -3 -16 6 -22 19 -9 20 -9 23 3 18 8 -3 15 -9 15 -14z m25 -68 c3 -5 2
-12 -3 -15 -5 -3 -9 1 -9 9 0 17 3 19 12 6z m87 -69 c-7 -2 -9 -9 -5 -15 4 -7
-1 -6 -11 2 -13 11 -14 16 -4 22 6 4 17 5 22 2 6 -4 5 -8 -2 -11z m48 -38 c0
-2 -9 -4 -21 -4 -11 0 -18 4 -14 10 5 8 35 3 35 -6z"/>
<path d="M790 1050 c0 -5 8 -10 18 -11 14 0 14 -2 -3 -9 -20 -9 -20 -9 0 -9
13 -1 21 -8 23 -21 4 -42 5 -50 10 -45 3 3 11 -3 17 -12 11 -14 15 -15 29 -4
13 11 18 10 31 -3 16 -16 53 -29 71 -25 27 5 34 -3 29 -35 -2 -24 1 -39 12
-48 14 -11 15 -10 9 10 -6 18 -4 22 15 22 17 0 19 3 10 14 -10 12 -8 13 9 9
15 -4 19 -11 15 -24 -5 -14 -2 -17 9 -13 8 3 16 13 18 22 3 13 5 12 10 -6 3
-12 3 -20 -2 -17 -4 3 -13 -2 -20 -10 -11 -13 -10 -14 4 -9 13 5 15 1 9 -26
-6 -32 -5 -33 20 -26 16 4 27 2 27 -4 0 -5 -3 -9 -7 -8 -8 3 -13 -5 -13 -17 0
-3 9 -1 20 5 12 6 20 7 20 1 0 -5 -6 -11 -12 -14 -10 -3 -10 -7 0 -19 10 -13
9 -18 -3 -28 -13 -11 -15 -9 -13 10 2 13 -3 25 -11 28 -8 2 -11 0 -7 -6 3 -5
-1 -12 -9 -16 -19 -7 -30 11 -15 29 6 8 7 16 2 19 -14 9 -23 -36 -10 -51 8
-10 6 -13 -6 -13 -13 0 -15 -4 -7 -17 7 -13 5 -23 -7 -37 -16 -18 -16 -19 2
-12 16 5 17 4 7 -8 -10 -12 -8 -16 8 -21 12 -3 21 -10 21 -14 0 -4 15 -7 34
-6 19 0 33 -3 30 -6 -2 -4 1 -11 7 -15 6 -3 15 -1 19 6 4 7 13 9 19 6 6 -4 11
-3 11 3 0 5 7 17 16 25 14 15 14 16 0 16 -14 0 -14 3 -4 22 7 12 18 28 24 34
13 15 40 1 30 -15 -4 -6 -2 -11 3 -11 6 0 11 -7 11 -15 0 -8 5 -15 10 -15 21
0 9 -35 -22 -60 -31 -26 -31 -27 -15 -51 9 -13 17 -19 17 -13 0 6 11 16 24 22
19 8 27 8 35 -2 6 -7 7 -17 3 -21 -4 -5 -2 -5 4 -2 6 3 20 -2 31 -12 19 -18
20 -18 31 0 8 13 20 17 44 14 21 -3 36 1 46 13 13 16 13 16 8 0 -6 -20 10 -25
17 -5 3 7 6 4 6 -7 1 -16 3 -17 18 -5 15 12 16 12 9 -5 -7 -19 -6 -19 14 -1
11 10 20 15 20 10 0 -4 7 -2 15 5 8 7 15 9 15 4 0 -5 5 -2 10 6 8 13 10 12 10
-3 0 -15 3 -16 20 -7 14 7 20 8 20 0 0 -6 11 -15 24 -22 20 -9 28 -7 42 6 14
14 19 15 25 4 8 -12 13 -5 11 14 -1 3 5 9 14 12 10 4 13 2 8 -7 -6 -9 -3 -8 8
1 14 11 22 11 47 -3 31 -15 48 -17 44 -2 -5 13 14 8 27 -8 17 -20 27 -19 33 4
3 14 16 20 48 23 50 6 83 -7 75 -28 -3 -8 1 -14 9 -14 8 0 15 -4 15 -9 0 -5
11 -8 25 -7 14 0 25 5 25 9 0 5 4 6 10 2 5 -3 25 -6 44 -7 19 -1 37 -7 40 -13
5 -15 66 -7 66 8 0 6 6 2 14 -8 12 -16 16 -17 29 -6 9 7 38 13 64 14 l48 2 3
163 3 163 -23 -3 c-13 -2 -26 -10 -30 -18 -5 -11 -7 -9 -7 7 -1 16 -6 20 -21
16 -11 -3 -20 -1 -20 4 0 6 -12 9 -27 9 -16 -1 -37 4 -47 11 -16 10 -23 10
-35 0 -10 -8 -13 -8 -8 -1 8 13 -19 27 -34 18 -5 -3 -9 0 -9 6 0 6 -4 8 -10 5
-5 -3 -7 0 -4 8 3 9 0 15 -8 14 -51 -2 -108 4 -104 12 3 4 -3 16 -14 26 -12
10 -20 13 -20 7 0 -7 -7 -12 -15 -12 -8 0 -15 4 -15 8 0 9 -17 12 -60 12 -20
0 -22 2 -10 10 13 8 12 10 -5 11 -28 2 -49 -2 -55 -9 -3 -4 -11 -8 -19 -10
-12 -3 -12 -1 -1 13 14 17 8 26 -25 38 -5 3 -7 7 -3 11 3 4 16 2 28 -4 16 -9
25 -9 29 -1 6 10 70 8 221 -5 30 -2 82 -7 115 -9 100 -9 154 -25 173 -52 9
-13 27 -36 39 -51 l22 -27 1 118 0 117 -860 0 c-567 0 -860 -3 -860 -10z
m1320 -170 c0 -5 -2 -10 -4 -10 -3 0 -8 5 -11 10 -3 6 -1 10 4 10 6 0 11 -4
11 -10z m-950 -30 c0 -6 10 -15 23 -20 19 -8 18 -9 -13 -9 -19 1 -29 3 -22 6
10 4 10 8 1 19 -8 10 -8 14 0 14 6 0 11 -5 11 -10z m501 -144 c5 3 9 0 9 -6 0
-10 50 -8 90 5 11 3 20 2 20 -3 0 -4 35 -8 79 -8 46 0 85 -4 93 -11 8 -7 32
-10 55 -8 35 4 48 -1 87 -32 25 -20 46 -40 46 -45 0 -5 6 -8 14 -6 8 2 15 -1
16 -6 0 -6 -5 -11 -12 -12 -7 -1 -31 -6 -53 -10 -56 -12 -136 -9 -325 12 -30
3 -65 6 -76 5 -12 0 -27 6 -33 13 -7 8 -21 12 -33 8 -17 -4 -20 -2 -15 13 6
13 3 16 -11 13 -11 -3 -19 0 -19 8 0 7 4 11 9 8 4 -3 8 -1 8 5 0 5 7 17 16 25
8 9 11 16 4 16 -7 0 -6 5 2 14 7 8 15 10 16 5 2 -5 8 -7 13 -3z m-516 -106 c3
-5 1 -10 -4 -10 -6 0 -11 5 -11 10 0 6 2 10 4 10 3 0 8 -4 11 -10z"/>
<path d="M966 885 c-4 -13 -2 -14 14 -5 23 13 26 20 6 20 -8 0 -16 -7 -20 -15z"/>
<path d="M990 829 c7 -11 14 -18 17 -15 8 8 -5 36 -17 36 -7 0 -7 -6 0 -21z"/>
<path d="M947 799 c7 -7 15 -10 18 -7 3 3 -2 9 -12 12 -14 6 -15 5 -6 -5z"/>
<path d="M1053 797 c2 -7 14 -14 26 -15 28 -4 20 13 -9 21 -14 3 -20 1 -17 -6z"/>
<path d="M895 779 c-4 -6 -5 -12 -2 -15 2 -3 7 2 10 11 7 17 1 20 -8 4z"/>
<path d="M1010 730 c20 -13 33 -13 25 0 -3 6 -14 10 -23 10 -15 0 -15 -2 -2
-10z"/>
<path d="M907 723 c-4 -3 -7 -11 -7 -17 0 -6 5 -5 12 2 6 6 9 14 7 17 -3 3 -9
2 -12 -2z"/>
<path d="M976 703 c-11 -3 -26 -11 -34 -19 -11 -12 -11 -14 2 -14 9 0 16 -5
16 -11 0 -5 4 -8 10 -4 5 3 7 12 3 20 -4 11 -1 13 13 8 11 -4 15 -3 11 4 -4 6
-1 14 5 16 16 7 -1 6 -26 0z"/>
<path d="M860 691 c0 -6 4 -13 10 -16 6 -3 7 1 4 9 -7 18 -14 21 -14 7z"/>
<path d="M1048 672 c-16 -17 -16 -18 1 -18 9 0 18 8 18 18 2 21 2 21 -19 0z"/>
<path d="M1005 660 c-3 -5 -1 -10 4 -10 6 0 11 5 11 10 0 6 -2 10 -4 10 -3 0
-8 -4 -11 -10z"/>
<path d="M0 646 c0 -10 28 -13 41 -5 10 6 7 9 -13 9 -16 0 -28 -2 -28 -4z"/>
<path d="M758 637 c12 -14 12 -19 -1 -31 -8 -8 -17 -12 -21 -9 -3 4 -6 2 -6
-4 0 -5 8 -17 19 -27 16 -15 19 -15 31 -1 7 9 10 18 6 22 -3 3 -6 1 -6 -5 0
-7 -7 -12 -15 -12 -20 0 -19 16 1 24 19 7 15 47 -6 54 -13 5 -13 3 -2 -11z"/>
<path d="M830 610 c-13 -8 -12 -10 3 -10 9 0 17 5 17 10 0 12 -1 12 -20 0z"/>
<path d="M690 600 c-8 -5 -12 -11 -9 -14 3 -3 14 1 25 9 21 16 8 20 -16 5z"/>
<path d="M949 593 c-13 -16 -12 -17 4 -4 16 13 21 21 13 21 -2 0 -10 -8 -17
-17z"/>
<path d="M836 582 c-2 -4 4 -8 14 -8 10 0 16 4 14 8 -3 4 -9 8 -14 8 -5 0 -11
-4 -14 -8z"/>
<path d="M1087 576 c-4 -10 -1 -13 8 -9 8 3 12 9 9 14 -7 12 -11 11 -17 -5z"/>
<path d="M689 569 c-7 -5 -9 -9 -4 -10 6 0 20 -2 33 -3 27 -3 28 0 4 13 -11 6
-24 6 -33 0z"/>
<path d="M820 553 c0 -6 8 -17 18 -24 16 -13 16 -13 2 6 -8 11 -16 22 -17 24
-2 2 -3 0 -3 -6z"/>
<path d="M773 534 c-3 -9 2 -23 12 -32 10 -9 15 -12 11 -6 -3 7 1 15 10 18 14
5 14 8 0 21 -19 19 -25 19 -33 -1z"/>
<path d="M1107 530 c3 -12 0 -20 -6 -20 -7 0 -9 5 -6 10 3 6 1 10 -4 10 -18 0
-12 -18 11 -34 23 -17 23 -17 -7 -34 -17 -10 -17 -11 -3 -12 9 0 20 5 23 10 3
6 15 10 26 10 11 0 17 -4 14 -10 -3 -5 -1 -10 5 -10 18 0 6 24 -17 35 -16 7
-21 16 -18 37 2 18 -1 28 -10 28 -8 0 -11 -7 -8 -20z"/>
<path d="M730 525 c12 -15 30 -12 30 6 0 5 -10 9 -21 9 -18 0 -19 -2 -9 -15z"/>
<path d="M1056 487 c3 -10 9 -15 12 -12 3 3 0 11 -7 18 -10 9 -11 8 -5 -6z"/>
<path d="M1335 490 c-3 -6 1 -7 9 -4 18 7 21 14 7 14 -6 0 -13 -4 -16 -10z"/>
<path d="M810 480 c0 -5 7 -10 15 -10 8 0 15 5 15 10 0 6 -7 10 -15 10 -8 0
-15 -4 -15 -10z"/>
<path d="M1450 466 c0 -9 3 -17 8 -17 38 -7 52 -5 52 8 0 8 -8 13 -17 11 -10
-1 -24 1 -30 5 -9 5 -13 3 -13 -7z"/>
<path d="M1520 468 c0 -21 12 -29 29 -19 9 6 10 11 2 15 -6 4 -11 4 -11 -1 0
-4 -5 -1 -10 7 -8 13 -10 13 -10 -2z"/>
<path d="M815 440 c-18 -20 -18 -21 0 -14 15 6 17 4 12 -10 -4 -10 -3 -15 3
-11 7 4 11 55 4 55 0 0 -9 -9 -19 -20z"/>
<path d="M923 445 c0 -8 4 -12 9 -9 5 3 6 10 3 15 -9 13 -12 11 -12 -6z"/>
<path d="M870 435 c0 -8 2 -15 4 -15 2 0 6 7 10 15 3 8 1 15 -4 15 -6 0 -10
-7 -10 -15z"/>
<path d="M759 423 c-7 -41 -5 -49 15 -50 20 -2 20 -1 3 12 -20 14 -6 32 16 19
8 -5 8 -2 -2 9 -14 18 -30 22 -32 10z"/>
<path d="M813 367 c0 -15 4 -30 10 -34 6 -3 7 -1 3 6 -4 6 -2 19 6 28 7 10 8
14 1 10 -6 -4 -13 -1 -16 5 -2 7 -4 1 -4 -15z"/>
<path d="M852 354 c-7 -8 -8 -14 -3 -14 10 0 25 19 20 25 -2 1 -10 -3 -17 -11z"/>
<path d="M755 343 c-5 -14 -3 -15 6 -6 6 6 18 9 27 6 10 -4 13 -2 8 5 -11 18
-33 14 -41 -5z"/>
<path d="M680 313 c0 -7 5 -13 11 -13 8 0 9 -4 0 -13 -6 -8 -8 -17 -4 -20 3
-4 -1 -7 -11 -7 -9 0 -14 -5 -11 -10 5 -8 11 -7 21 1 7 6 11 15 8 20 -3 5 0 9
5 9 6 0 11 11 11 23 0 14 -6 24 -15 24 -8 0 -15 -6 -15 -14z"/>
<path d="M735 289 c-9 -17 -15 -35 -13 -41 2 -6 11 8 20 31 19 48 15 54 -7 10z"/>
<path d="M1803 265 c-6 -7 -9 -15 -7 -18 3 -3 1 -14 -5 -25 -7 -13 -7 -22 1
-30 8 -8 9 -12 1 -12 -6 0 -13 -9 -16 -20 -3 -11 -1 -20 4 -20 5 0 9 -3 9 -7
-1 -22 -22 -34 -65 -38 -68 -7 -96 -35 -61 -64 22 -18 53 -23 180 -27 79 -3
123 0 132 7 19 16 18 59 -1 59 -8 0 -15 5 -15 11 0 7 -11 9 -30 5 -29 -5 -41
6 -20 19 6 4 8 11 4 16 -3 5 -10 7 -15 4 -12 -8 -12 12 1 36 7 13 7 19 0 19
-16 0 -12 32 8 47 16 14 16 14 -1 9 -10 -3 -15 -2 -12 4 13 21 -74 45 -92 25z"/>
<path d="M815 169 c-4 -6 -5 -12 -2 -15 2 -3 7 2 10 11 7 17 1 20 -8 4z"/>
<path d="M815 100 c-3 -5 -1 -10 4 -10 6 0 11 5 11 10 0 6 -2 10 -4 10 -3 0
-8 -4 -11 -10z"/>
<path d="M840 80 c0 -5 5 -10 10 -10 6 0 10 5 10 10 0 6 -4 10 -10 10 -5 0
-10 -4 -10 -10z"/>
<path d="M885 39 c-4 -6 -5 -12 -2 -15 2 -3 7 2 10 11 7 17 1 20 -8 4z"/>
</g>
</svg>
